<svg width="24" height="24" fill="none" xmlns="http://www.w3.org/2000/svg"><circle cx="12" cy="12" r="12"/><path d="M16.37 11.687a3.392 3.392 0 00.615-1.965c0-1.78-1.327-3.222-2.964-3.222h-.473V4.008a.258.258 0 00-.258-.258h-.86a.258.258 0 00-.257.258V6.5h-1.375V4.008a.258.258 0 00-.258-.258h-.859a.258.258 0 00-.258.258V6.5H6.587a.258.258 0 00-.257.257v.868c0 .133.099.248.231.26.968.089 1.487.739 1.487 1.537v5.328c0 .718-.37 1.288-1.18 1.366a.258.258 0 00-.232.207l-.164.876c-.03.156.09.301.25.301h2.7v2.492c0 .142.117.258.258.258h.86a.258.258 0 00.257-.258V17.5h1.375v2.492c0 .142.116.258.258.258h.859a.258.258 0 00.257-.258V17.5h1.16c1.638 0 2.965-1.423 2.965-3.18.002-1.096-.515-2.061-1.301-2.633zm-5.573-3.125h2.106a1.418 1.418 0 110 2.836h-2.106V8.562zm2.793 6.961h-2.793v-2.836h2.793a1.418 1.418 0 110 2.836z" fill="#445368"/></svg>