<svg width="18" height="18" fill="none" xmlns="http://www.w3.org/2000/svg"><g opacity=".5" fill="#fff"><path d="M16.886 1.114a3.804 3.804 0 00-5.379 0l-3.731 3.73a3.803 3.803 0 000 5.38.788.788 0 101.115-1.115c-.87-.87-.87-2.28 0-3.15l3.73-3.73a2.227 2.227 0 013.15 3.149L12.129 9.02a.788.788 0 101.115 1.115l3.642-3.642a3.803 3.803 0 000-5.379z"/><path d="M1.114 16.886a3.804 3.804 0 005.379 0l3.731-3.73a3.803 3.803 0 000-5.38.788.788 0 00-1.115 1.115c.87.87.87 2.28 0 3.15l-3.73 3.73a2.227 2.227 0 01-3.15-3.149L5.871 8.98a.788.788 0 10-1.115-1.115l-3.642 3.642a3.803 3.803 0 000 5.379z"/></g></svg>