<svg width="18" height="18" fill="none" xmlns="http://www.w3.org/2000/svg"><g opacity=".8" clip-path="url(#clip0)" fill="#fff"><path d="M17.358 16.723H.642a.635.635 0 00-.627.639c0 .342.29.638.627.638h16.732a.635.635 0 00.626-.638.649.649 0 00-.642-.639zM.015 11.07L0 14.108c0 .172.061.343.183.467a.606.606 0 00.443.187l2.965-.015a.61.61 0 00.443-.187L14.272 4.126a.667.667 0 000-.918L11.338.187a.637.637 0 00-.902 0L8.39 2.289.2 10.619a.7.7 0 00-.184.452zm10.88-9.513l2.063 2.102-1.162 1.184L9.733 2.74l1.162-1.183z"/></g><defs><clipPath id="clip0"><path fill="#fff" d="M0 0h18v18H0z"/></clipPath></defs></svg>