<svg width="18" height="18" fill="none" xmlns="http://www.w3.org/2000/svg"><path fill-rule="evenodd" clip-rule="evenodd" d="M3 1h12a2 2 0 012 2v12a2 2 0 01-2 2H3a2 2 0 01-2-2V3a2 2 0 012-2zM0 3a3 3 0 013-3h12a3 3 0 013 3v12a3 3 0 01-3 3H3a3 3 0 01-3-3V3zm8.166 11h1.661V6.604H8.166V14zm.137-9.953a.889.889 0 00-.24.636c0 .25.08.46.24.629.164.164.396.246.697.246.3 0 .533-.082.697-.246a.866.866 0 00.246-.63.875.875 0 00-.246-.635c-.164-.169-.396-.253-.697-.253-.3 0-.533.084-.697.253z" fill="#445368"/></svg>