<svg width="125" height="30" fill="none" xmlns="http://www.w3.org/2000/svg"><path d="M35.967 29.352v-.004l-.005-.01a.123.123 0 00-.01-.02.35.35 0 00-.02-.038L18.4.248 18.395.24l-.019-.033a.457.457 0 00-.787.035 977.621 977.621 0 01-3.556 5.855 1.012 1.012 0 000 1.16c1.572 2.582 3.136 5.17 4.71 7.752a1.099 1.099 0 010 1.256c-2.585 4.267-5.326 8.76-7.922 13.05a.46.46 0 00.403.681h7.238-.001.349a.454.454 0 00.404-.243l.262-.438 3.497-5.803a.459.459 0 01.783-.039l.01.015.003.005 3.48 5.717.32.53a.456.456 0 00.403.241h.212a.75.75 0 00.106 0h7.252a.46.46 0 00.425-.63z" fill="#fff"/><path d="M15.772 16.546l.252-.418a.907.907 0 000-1.03l-1.558-2.537-1.781-2.905a.459.459 0 00-.796.021L.055 29.32a.462.462 0 00.403.68h6.478-.003.476a.456.456 0 00.402-.241v-.001l.266-.443a.459.459 0 00.034-.052v-.001l.289-.48c2.484-4.126 4.852-8.064 7.333-12.171a1.03 1.03 0 00.039-.065zm86.201 5.282l-.29-.477.002-.002-2.12-3.48c-.319-.523-.264-1.313.22-1.682 1.6-1.217 2.616-3.293 2.616-5.176 0-2.89-2.634-6.005-5.851-6.005h-9.074a.734.734 0 00-.728.736V7.81c0 .405.327.736.728.736h8.567c.323.003.633.06.921.164a2.558 2.558 0 011.64 2.394c0 1.154-.759 2.13-1.801 2.447a3.05 3.05 0 01-.783.101h-7.57a1.715 1.715 0 00-.176.012h-.798c-.016 0-.031 0-.047.003a.73.73 0 00-.681.732v2.006c0 .024.001.048.004.07v3.75a.543.543 0 00-.004.07v2.966c0 .405.327.736.728.736h.927c.023.001.046.003.07.003l.069-.003h.92c.4 0 .728-.331.728-.736v-.927a.845.845 0 00.004-.072l-.002-.05.001-2.218a.698.698 0 01-.01-.12V17.87c0-.405.327-.736.728-.736h2.937c.026 0 .052.002.078.004h.412v.001c.484 0 .905.263 1.136.653h.002l2.019 3.318.008.014 1.235 2.03.28.46.018.03a.73.73 0 00.628.357h2.319a.743.743 0 00.608-1.154l-.618-1.018zm-21.326-1.306h-.926l-.066-.003H68.692c-.023 0-.044.002-.066.003h-.928c-.4 0-.728.331-.728.736v2.005c0 .405.328.736.728.736h2.937l.066-.003h6.943a.733.733 0 00.066.003h2.937c.401 0 .728-.33.728-.736v-2.006a.734.734 0 00-.728-.735zm0-7.758h-.96l-.032-.002H68.692l-.033.002h-.96c-.4 0-.729.33-.729.736v2.006c0 .404.328.735.728.735h2.937c.012 0 .022 0 .033-.002h7.01l.032.002h2.937a.734.734 0 00.728-.735V13.5a.734.734 0 00-.728-.737zm0-7.757H67.699c-.4 0-.729.331-.729.735v2.006c0 .405.328.736.728.736h12.949c.401 0 .728-.33.728-.736V5.742a.734.734 0 00-.728-.735zm-19.727 0h-.978l-.015-.001h-5.985c-.04-.003-.078-.006-.118-.006-.044 0-.087.004-.13.007h-.863a.734.734 0 00-.728.735v17.522c0 .405.327.735.728.735h1.986c.4 0 .728-.33.728-.735V9.82l.002-.02v-.58c0-.405.327-.736.728-.736h.595v-.001h4.05c.4 0 .728-.33.728-.735V5.742a.735.735 0 00-.728-.735zm-11.255-.002H46.73a.734.734 0 00-.729.736v2.006c0 .405.327.735.729.735h2.936c.4 0 .729-.33.729-.735V5.74a.735.735 0 00-.729-.736zm75.284 18.008l-.001-.006-.022-.045a.063.063 0 00-.007-.018l-7.432-16.861-.264-.628a.713.713 0 00-.661-.449h-1.318a.712.712 0 00-.65.424c-.004.008-.008.016-.01.024l-.281.629-4.055 9.204-.916 2.054-.183.41-.009.02a.739.739 0 00.679 1.025h2.166a.733.733 0 00.675-.453l.048-.107.165-.37a1.1 1.1 0 00.031-.06l.026-.056.01-.024.359-.816.378-.846a.572.572 0 00.027-.073l.97-2.198.845-1.918a.407.407 0 01.753 0l.845 1.918 2.148 4.872.566 1.284h-.001a.41.41 0 01-.376.573h-10.561l-.015.001h-.488a.712.712 0 00-.641.403l-.021.048-.7 1.57-.184.411a.72.72 0 00-.064.302c0 .41.328.742.734.742h16.773a.716.716 0 00.662-.986z" fill="#fff"/></svg>