<svg width="18" height="18" fill="none" xmlns="http://www.w3.org/2000/svg"><g opacity=".5" clip-path="url(#clip0)" fill="#fff"><mask id="a"><path fill-rule="evenodd" clip-rule="evenodd" d="M13.376 3.394l4.848 1.515a.75.75 0 01-.448 1.432L13.19 4.907a1.498 1.498 0 01-1.97.366L7.5 8.063a1.5 1.5 0 01-2.951.3L-.335 5.92a.75.75 0 11.67-1.342L4.97 6.896a1.495 1.495 0 011.829-.182L10.5 3.937a1.5 1.5 0 012.875-.543zM0 10.5l6 3L12 9l6 1.875v7.07H0V10.5z"/></mask><path fill-rule="evenodd" clip-rule="evenodd" d="M13.376 3.394l4.848 1.515a.75.75 0 01-.448 1.432L13.19 4.907a1.498 1.498 0 01-1.97.366L7.5 8.063a1.5 1.5 0 01-2.951.3L-.335 5.92a.75.75 0 11.67-1.342L4.97 6.896a1.495 1.495 0 011.829-.182L10.5 3.937a1.5 1.5 0 012.875-.543zM0 10.5l6 3L12 9l6 1.875v7.07H0V10.5z"/><path d="M13.376 3.394l-.917.4.183.418.436.137.298-.955zm4.848 1.515l-.298.955.298-.955zm.492.94l.954.298-.954-.298zm-.94.492l.299-.955-.299.955zM13.19 4.907l.299-.954-.666-.208-.425.552.792.61zm-1.97.366l.522-.853-.58-.354-.542.407.6.8zM7.5 8.063l-.6-.8-.375.282-.025.467 1 .052zm-2.951.3l.968-.251-.114-.44-.407-.204-.447.894zM-.335 5.92l-.447.894.447-.894zm-.336-1.007l-.894-.447.894.447zM.336 4.58l-.448.894.448-.894zm4.633 2.317l-.447.894.626.313.509-.481-.688-.726zm1.829-.182l-.533.847.582.366.55-.413-.6-.8zM10.5 3.937l.6.8.382-.287.018-.477-1-.036zM6 13.5l-.448.894.553.277.494-.371-.6-.8zm-6-3l.446-.895L-1 8.882V10.5h1zM12 9l.297-.955-.488-.152-.41.307.6.8zm6 1.875h1v-.735l-.703-.22-.298.955zm0 7.07v1h1v-1h-1zm-18 0h-1v1h1v-1zM13.077 4.35l4.848 1.514.596-1.908-4.848-1.515-.596 1.909zm4.848 1.514a.25.25 0 01-.164-.313l1.909.597a1.75 1.75 0 00-1.149-2.192l-.596 1.909zm-.164-.313a.25.25 0 01.313-.164l-.597 1.91a1.75 1.75 0 002.192-1.15l-1.909-.596zm.313-.164l-4.587-1.433-.597 1.909 4.587 1.433.597-1.909zm-5.678-1.089a.498.498 0 01-.397.196v2c.808 0 1.526-.384 1.981-.976l-1.584-1.22zM12 4.493a.493.493 0 01-.26-.073l-1.043 1.707c.38.232.828.366 1.303.366v-2zm-1.381-.02l-3.72 2.79 1.2 1.6 3.72-2.79-1.2-1.6zm-4.12 3.54A.5.5 0 016 8.484v2a2.5 2.5 0 002.497-2.37l-1.998-.103zM6 8.484a.5.5 0 01-.484-.373l-1.936.501A2.5 2.5 0 006 10.485v-2zM4.995 7.468L.112 5.026l-.894 1.79L4.1 9.255l.894-1.788zM.112 5.026a.25.25 0 01.112.336l-1.79-.895a1.75 1.75 0 00.784 2.348l.894-1.789zm.112.336a.25.25 0 01-.336.111l.895-1.788a1.75 1.75 0 00-2.348.782l1.789.895zm-.336.111L4.522 7.79l.894-1.789L.783 3.685l-.895 1.788zm5.769 2.149A.495.495 0 016 7.485v-2c-.665 0-1.271.261-1.719.685l1.376 1.452zM6 7.485c.1 0 .189.028.265.076L7.33 5.868A2.493 2.493 0 006 5.485v2zm1.398.03L11.1 4.736l-1.2-1.6-3.703 2.777 1.2 1.6zM11.5 3.972a.5.5 0 01.5-.48v-2A2.5 2.5 0 009.5 3.9l2 .073zm.5-.48a.5.5 0 01.458.3l1.834-.798A2.5 2.5 0 0012 1.493v2zm-5.554 9.112l-6-3-.894 1.79 6 3 .894-1.79zM11.4 8.2l-6 4.5 1.2 1.6 6-4.5-1.2-1.6zm6.898 1.72l-6-1.875-.596 1.91 6 1.874.596-1.909zM19 17.945v-7.07h-2v7.07h2zm-19 1h18v-2H0v2zM-1 10.5v7.445h2V10.5h-2z" mask="url(#a)"/></g><defs><clipPath id="clip0"><path fill="#fff" d="M0 0h18v18H0z"/></clipPath></defs></svg>