<svg width="18" height="18" fill="none" xmlns="http://www.w3.org/2000/svg"><path fill-rule="evenodd" clip-rule="evenodd" d="M9.563 17.983a9 9 0 10-1.126 0V18h1.126v-.017zm-1.126-5.42H5.341c.235.846.55 1.6.918 2.234.674 1.154 1.447 1.784 2.178 1.996v-4.23zm-3.35-1.126A13.91 13.91 0 014.874 9c0-.856.075-1.674.211-2.438h3.351v4.875h-3.35zm-1.142 0H1.509A7.869 7.869 0 011.125 9c0-.85.135-1.67.384-2.438h2.436A15.112 15.112 0 003.75 9c0 .845.068 1.662.195 2.438zm.232 1.126H1.975a7.905 7.905 0 003.898 3.667c-.738-.94-1.327-2.203-1.696-3.668zm5.386 0h3.096a9.5 9.5 0 01-.918 2.234c-.674 1.154-1.447 1.784-2.178 1.996v-4.23zm3.35-1.126h-3.35V6.564h3.35c.137.763.212 1.581.212 2.437 0 .856-.075 1.674-.211 2.438zm.91 1.126c-.369 1.464-.958 2.727-1.696 3.667a7.905 7.905 0 003.898-3.668h-2.202zm2.668-1.126h-2.436c.127-.775.195-1.592.195-2.437 0-.845-.068-1.662-.195-2.438h2.436A7.86 7.86 0 0116.875 9c0 .85-.135 1.67-.384 2.438zm-6.928-6h3.096a9.5 9.5 0 00-.918-2.234c-.674-1.154-1.447-1.784-2.178-1.996v4.23zm4.26 0h2.202a7.906 7.906 0 00-3.898-3.667c.738.94 1.327 2.203 1.696 3.667zm-8.482 0h3.096v-4.23c-.731.212-1.504.842-2.178 1.996a9.497 9.497 0 00-.918 2.235zm.532-3.667c-.738.94-1.327 2.203-1.696 3.667H1.975A7.906 7.906 0 015.873 1.77z" fill="#fff" opacity=".5"/></svg>