<svg width="18" height="18" fill="none" xmlns="http://www.w3.org/2000/svg"><path d="M2.276 7.977a.33.33 0 00.263-.007l2.604-1.183A.335.335 0 005.3 6.34c-.077-.16-.267-.233-.43-.16l-1.824.83c.87-2.603 3.294-4.343 6.084-4.343 2.923 0 5.48 1.953 6.217 4.75.046.177.23.283.406.237a.334.334 0 00.237-.407C15.177 4.16 12.357 2 9.13 2 6.053 2 3.376 3.92 2.41 6.794l-.767-1.917a.335.335 0 00-.42-.214.335.335 0 00-.197.46L2.089 7.79c.034.084.1.154.187.187zM16.987 12.898a.047.047 0 01-.007-.02l-1.063-2.667a.332.332 0 00-.45-.18l-2.604 1.183a.335.335 0 00.257.617l.02-.01 1.823-.83c-.876 2.603-3.303 4.343-6.09 4.343-2.923 0-5.48-1.953-6.217-4.75a.334.334 0 00-.407-.237.334.334 0 00-.236.407c.81 3.09 3.633 5.247 6.86 5.247 3.077 0 5.75-1.92 6.72-4.794l.767 1.917a.333.333 0 10.627-.226z" fill="#445368"/></svg>