<svg width="104" height="25" viewBox="0 0 105 25" fill="none" xmlns="http://www.w3.org/2000/svg"><path d="M29.973 24.46l-.001-.003-.004-.01a.102.102 0 00-.008-.015.32.32 0 00-.017-.032L15.334.207 15.33.2l-.016-.027a.38.38 0 00-.656.028 816.62 816.62 0 01-2.964 4.88.842.842 0 000 .967c1.31 2.151 2.614 4.308 3.925 6.459a.916.916 0 010 1.047c-2.154 3.556-4.438 7.3-6.602 10.875a.384.384 0 00.336.567h6.032v.001h.29a.378.378 0 00.336-.203h.001l.218-.365 2.914-4.836a.382.382 0 01.66-.02l.003.004 2.901 4.764.266.442c.065.12.19.201.336.201h.177c.03.002.059.002.088 0h6.043a.383.383 0 00.355-.525z" fill="#fff"/><path d="M13.143 13.788l.21-.349a.755.755 0 000-.857l-1.298-2.115-1.485-2.42a.382.382 0 00-.662.017L.046 24.432A.384.384 0 00.382 25H5.78h-.002.396a.38.38 0 00.335-.2l.222-.37a.392.392 0 00.028-.043v-.002l.241-.4c2.07-3.437 4.043-6.72 6.11-10.142a.775.775 0 00.033-.054zM84.977 18.19l-.241-.398.001-.001-1.766-2.9c-.266-.437-.22-1.094.183-1.402 1.333-1.014 2.18-2.744 2.18-4.313 0-2.41-2.196-5.005-4.876-5.005h-6.72l-.014.001h-.827a.612.612 0 00-.607.613v1.723c0 .337.272.613.607.613H80.036c.269.002.527.05.767.136a2.131 2.131 0 011.366 1.995c0 .962-.632 1.776-1.5 2.04a2.546 2.546 0 01-.653.084H73.71c-.05 0-.1.004-.148.01h-.664c-.014 0-.027 0-.04.002a.609.609 0 00-.567.61v1.672c0 .021 0 .04.003.06v3.124a.454.454 0 00-.003.059v2.471c0 .337.272.613.607.613h.771c.02.001.039.003.059.003l.057-.003h.767a.612.612 0 00.607-.613v-.773c.001-.02.004-.04.004-.06 0-.014-.002-.027-.003-.04l.002-1.85a.58.58 0 01-.009-.099v-1.671c0-.338.273-.614.607-.614h2.447c.022 0 .043.002.065.004h.344c.403 0 .753.22.946.545h.002l1.682 2.765.007.011 1.03 1.692.233.383c.004.009.01.018.015.026.107.178.3.297.523.297H84.985a.62.62 0 00.507-.962l-.515-.848zM67.206 17.102h-.772l-.055-.003h-9.136c-.02 0-.037.002-.055.003h-.773a.612.612 0 00-.607.613v1.67c0 .339.274.614.607.614h2.447c.019 0 .037 0 .056-.002h5.785a.6.6 0 00.055.002h2.448a.611.611 0 00.607-.613V17.715a.612.612 0 00-.607-.613zM67.206 10.637h-.8l-.027-.002h-9.136l-.027.002h-.8a.612.612 0 00-.608.613V12.921c0 .337.274.613.607.613h2.447l.028-.001h5.841a.31.31 0 00.027.001h2.448a.612.612 0 00.607-.613V11.25a.611.611 0 00-.607-.613zM67.206 4.172H56.415a.612.612 0 00-.607.613v1.671c0 .338.274.613.607.613h10.791a.611.611 0 00.607-.613V4.785a.612.612 0 00-.607-.613zM50.767 4.172H44.95c-.032-.003-.064-.005-.098-.005-.037 0-.072.003-.108.005h-.719a.612.612 0 00-.607.613v14.602c0 .337.273.612.607.612H45.681a.612.612 0 00.607-.612v-.835V8.184v-.501c0-.337.273-.613.608-.613h.495v-.001h3.375a.612.612 0 00.608-.612V4.785a.612.612 0 00-.608-.613zM41.388 4.172H38.94a.612.612 0 00-.607.613v1.671c0 .338.273.613.607.613h2.448a.612.612 0 00.607-.613V4.785a.612.612 0 00-.607-.613zM104.124 19.178l-.001-.005-.018-.038a2.147 2.147 0 01-.006-.015L97.905 5.07l-.22-.524a.594.594 0 00-.55-.374h-1.099a.594.594 0 00-.541.354c-.003.007-.007.013-.009.02l-.234.524-3.38 7.67-.762 1.711-.153.343a.607.607 0 00-.054.252c0 .34.274.618.612.618h1.805c.254 0 .47-.156.563-.377l.04-.09.138-.308.025-.049.022-.048.008-.02.3-.68.314-.704a.499.499 0 00.023-.061l.808-1.832.705-1.599a.34.34 0 01.627 0l.704 1.599 1.79 4.06.472 1.07a.342.342 0 01-.314.477h-8.801l-.013.001h-.407a.592.592 0 00-.533.336l-.018.04-.584 1.309-.152.342-.008.016a.615.615 0 00.566.854H103.572a.598.598 0 00.552-.821z" fill="#fff"/></svg>