<svg width="32" height="32" fill="none" xmlns="http://www.w3.org/2000/svg"><path d="M29.973 24.46l-.001-.003-.004-.01a.102.102 0 00-.008-.015.32.32 0 00-.017-.032L15.334.207 15.33.2l-.016-.027a.38.38 0 00-.656.028 816.62 816.62 0 01-2.964 4.88.842.842 0 000 .967c1.31 2.151 2.614 4.308 3.925 6.459a.916.916 0 010 1.047c-2.154 3.556-4.438 7.3-6.602 10.875a.384.384 0 00.336.567h6.032v.001h.29a.378.378 0 00.336-.203h.001l.218-.365 2.914-4.836a.382.382 0 01.66-.02l.003.004 2.901 4.764.266.442c.065.12.19.201.336.201h.177c.03.002.059.002.088 0h6.043a.383.383 0 00.355-.525z" fill="#445368"/><path d="M13.143 13.788l.21-.349a.755.755 0 000-.857l-1.298-2.115-1.485-2.42a.382.382 0 00-.662.017L.046 24.432A.384.384 0 00.382 25H5.78h-.002.396a.38.38 0 00.335-.2l.222-.37a.392.392 0 00.028-.043v-.002l.241-.4c2.07-3.437 4.043-6.72 6.11-10.142a.775.775 0 00.033-.054z" fill="#445368"/></svg>